<svg width="130" height="100" viewBox="0 0 130 100" fill="none" xmlns="http://www.w3.org/2000/svg">
<g clip-path="url(#clip0_664_66)">
<g filter="url(#filter0_i_664_66)">
<circle cx="65" cy="40" r="32" transform="rotate(-180 65 40)" stroke="black" stroke-opacity="0.5" stroke-width="6"/>
</g>
<g filter="url(#filter1_d_664_66)">
<circle cx="65" cy="40" r="32" stroke="#0C71C3" stroke-width="6" shape-rendering="crispEdges"/>
</g>
<path fill-rule="evenodd" clip-rule="evenodd" d="M48.6006 34.6006H58.4291V45.3994H48.6006V34.6006ZM48.6006 33C48.1761 33 47.769 33.1686 47.4688 33.4688C47.1686 33.769 47 34.1761 47 34.6006V45.3994C47 45.8239 47.1686 46.231 47.4688 46.5312C47.769 46.8314 48.1761 47 48.6006 47H80.5986C81.0231 47 81.4302 46.8314 81.7304 46.5312C82.0306 46.231 82.1992 45.8239 82.1992 45.3994V34.6006C82.1992 34.1761 82.0306 33.769 81.7304 33.4688C81.4302 33.1686 81.0231 33 80.5986 33H48.6006ZM73.8277 42.8956C74.3857 43.5075 75.2509 43.8135 76.4232 43.8135C76.7748 43.8126 77.1254 43.7772 77.4701 43.708C77.7734 43.6559 78.0666 43.5562 78.3388 43.4125C78.5761 43.2787 78.6948 43.1309 78.6948 42.9691C78.6831 42.87 78.6547 42.7736 78.6109 42.684C78.5595 42.5578 78.4889 42.4403 78.4015 42.3358C78.3783 42.2931 78.3453 42.2566 78.3054 42.2291C78.2654 42.2016 78.2195 42.1839 78.1713 42.1775C78.0899 42.1915 78.0118 42.2209 77.9412 42.264C77.7221 42.3706 77.4945 42.4589 77.2607 42.5279C76.988 42.6029 76.706 42.6384 76.4232 42.6334C76.1374 42.6542 75.8506 42.6067 75.5867 42.4948C75.3229 42.3829 75.0894 42.2097 74.9057 41.9897C74.5367 41.4124 74.3641 40.7312 74.4138 40.0478C74.3613 39.3609 74.534 38.6755 74.9057 38.0955C75.0946 37.8768 75.3323 37.7055 75.5996 37.5955C75.8669 37.4855 76.1563 37.4398 76.4444 37.4622C76.7017 37.4588 76.9584 37.4878 77.2084 37.5487C77.399 37.5937 77.5848 37.6573 77.763 37.7386C77.8428 37.7826 77.927 37.8179 78.0143 37.8442C78.0841 37.8442 78.1608 37.7914 78.2444 37.6858C78.3371 37.5772 78.4145 37.4564 78.4746 37.3268C78.5336 37.2231 78.5693 37.1078 78.5793 36.9889C78.5793 36.8765 78.4928 36.7709 78.3197 36.6723C78.0636 36.5387 77.7882 36.4462 77.5034 36.398C77.1626 36.3215 76.8145 36.2826 76.4652 36.2821C74.1557 36.2821 73.001 37.5344 73.001 40.0392C73.0007 41.3314 73.2763 42.2836 73.8277 42.8956ZM61.7679 43.7607C61.3981 43.7607 61.2133 43.6587 61.2133 43.4545V36.7428C61.2047 36.6374 61.2345 36.5325 61.2972 36.4473C61.3372 36.4128 61.3837 36.3866 61.434 36.3702C61.4843 36.3539 61.5374 36.3478 61.5901 36.3522H63.5367C64.2177 36.3003 64.897 36.4706 65.473 36.8375C65.6892 37.0107 65.8602 37.2336 65.9714 37.4873C66.0826 37.7409 66.1307 38.0178 66.1115 38.2941C66.121 38.6718 66.0071 39.0424 65.7871 39.3496C65.5609 39.6526 65.2519 39.8835 64.8972 40.0145V40.0578C65.0786 40.1373 65.2317 40.2697 65.3367 40.4376C65.4918 40.6564 65.6184 40.8941 65.7135 41.1449L66.6029 43.3822C66.6226 43.4407 66.6371 43.5008 66.6462 43.5618C66.6462 43.6956 66.4579 43.7623 66.0812 43.762H65.7676C65.4605 43.762 65.2791 43.6953 65.2234 43.5618L64.4071 41.4931C64.3188 41.2532 64.1625 41.0442 63.9572 40.8918C63.7206 40.7626 63.4518 40.704 63.1829 40.7231H62.5842V43.4562C62.5842 43.6604 62.3993 43.7625 62.0296 43.7625L61.7679 43.7607ZM63.7145 39.5287C63.845 39.5293 63.974 39.5023 64.0933 39.4495C64.2126 39.3967 64.3194 39.3193 64.4067 39.2224C64.597 39.0238 64.7021 38.7586 64.6995 38.4835C64.7077 38.3537 64.6865 38.2237 64.6376 38.1031C64.5887 37.9826 64.5133 37.8746 64.417 37.7871C64.2 37.6082 63.9235 37.5177 63.6427 37.5336H62.5842V39.5291L63.7145 39.5287ZM68.0404 43.7395C67.9877 43.744 67.9346 43.7379 67.8842 43.7216C67.8338 43.7052 67.7872 43.679 67.7471 43.6444C67.6778 43.5623 67.6439 43.456 67.6528 43.3489V36.7428C67.6471 36.6897 67.6526 36.636 67.6688 36.5851C67.6851 36.5342 67.7117 36.4873 67.7471 36.4473C67.7872 36.4127 67.8338 36.3865 67.8842 36.3702C67.9346 36.3538 67.9877 36.3477 68.0404 36.3522H71.7036C71.7449 36.3487 71.7863 36.3567 71.8232 36.3754C71.8602 36.394 71.8913 36.4225 71.913 36.4577C71.9704 36.5643 71.9958 36.6853 71.9861 36.806V37.0802C71.9958 37.2009 71.9704 37.3218 71.913 37.4285C71.8913 37.4637 71.8602 37.4922 71.8232 37.5108C71.7863 37.5294 71.7449 37.5375 71.7036 37.534H69.0246V39.3704H71.4108C71.452 39.3669 71.4934 39.3749 71.5304 39.3936C71.5673 39.4122 71.5984 39.4407 71.6202 39.4759C71.6775 39.5825 71.7029 39.7035 71.6933 39.8242V40.0984C71.7029 40.2191 71.6775 40.34 71.6202 40.4467C71.5984 40.4819 71.5673 40.5104 71.5304 40.529C71.4934 40.5476 71.452 40.5557 71.4108 40.5522H69.0246V42.5573H71.7145C71.7557 42.5538 71.7971 42.5618 71.8341 42.5805C71.871 42.5991 71.9021 42.6276 71.9238 42.6628C71.9812 42.7694 72.0066 42.8904 71.9969 43.0111V43.2853C72.0066 43.406 71.9812 43.5269 71.9238 43.6336C71.9021 43.6688 71.871 43.6973 71.8341 43.7159C71.7971 43.7345 71.7557 43.7426 71.7145 43.7391L68.0404 43.7395Z" fill="white"/>
<path d="M53.3915 42.801C54.9378 42.801 56.1913 41.5475 56.1913 40.0012C56.1913 38.455 54.9378 37.2015 53.3915 37.2015C51.8453 37.2015 50.5918 38.455 50.5918 40.0012C50.5918 41.5475 51.8453 42.801 53.3915 42.801Z" stroke="white" stroke-opacity="0.8" stroke-width="2.5"/>
</g>
<defs>
<filter id="filter0_i_664_66" x="30" y="5" width="70" height="70" filterUnits="userSpaceOnUse" color-interpolation-filters="sRGB">
<feFlood flood-opacity="0" result="BackgroundImageFix"/>
<feBlend mode="normal" in="SourceGraphic" in2="BackgroundImageFix" result="shape"/>
<feColorMatrix in="SourceAlpha" type="matrix" values="0 0 0 0 0 0 0 0 0 0 0 0 0 0 0 0 0 0 127 0" result="hardAlpha"/>
<feMorphology radius="3" operator="erode" in="SourceAlpha" result="effect1_innerShadow_664_66"/>
<feOffset/>
<feGaussianBlur stdDeviation="2"/>
<feComposite in2="hardAlpha" operator="arithmetic" k2="-1" k3="1"/>
<feColorMatrix type="matrix" values="0 0 0 0 0 0 0 0 0 0 0 0 0 0 0 0 0 0 0.5 0"/>
<feBlend mode="normal" in2="shape" result="effect1_innerShadow_664_66"/>
</filter>
<filter id="filter1_d_664_66" x="24" y="-1" width="82" height="82" filterUnits="userSpaceOnUse" color-interpolation-filters="sRGB">
<feFlood flood-opacity="0" result="BackgroundImageFix"/>
<feColorMatrix in="SourceAlpha" type="matrix" values="0 0 0 0 0 0 0 0 0 0 0 0 0 0 0 0 0 0 127 0" result="hardAlpha"/>
<feMorphology radius="2" operator="dilate" in="SourceAlpha" result="effect1_dropShadow_664_66"/>
<feOffset/>
<feGaussianBlur stdDeviation="2"/>
<feComposite in2="hardAlpha" operator="out"/>
<feColorMatrix type="matrix" values="0 0 0 0 0.0470588 0 0 0 0 0.443137 0 0 0 0 0.764706 0 0 0 0.45 0"/>
<feBlend mode="normal" in2="BackgroundImageFix" result="effect1_dropShadow_664_66"/>
<feBlend mode="normal" in="SourceGraphic" in2="effect1_dropShadow_664_66" result="shape"/>
</filter>
<clipPath id="clip0_664_66">
<rect width="130" height="100" fill="white"/>
</clipPath>
</defs>
</svg>
