<svg width="130" height="100" viewBox="0 0 130 100" fill="none" xmlns="http://www.w3.org/2000/svg">
<g clip-path="url(#clip0_664_32)">
<g filter="url(#filter0_i_664_32)">
<circle cx="65" cy="40" r="32" transform="rotate(-180 65 40)" stroke="black" stroke-opacity="0.5" stroke-width="6"/>
</g>
<g filter="url(#filter1_d_664_32)">
<circle cx="65" cy="40" r="32" stroke="#0C71C3" stroke-width="6" shape-rendering="crispEdges"/>
</g>
<path d="M75.5148 41.3349C75.7974 41.3346 76.0793 41.3628 76.3562 41.4191V26.8229C76.3514 26.603 76.2606 26.3937 76.1034 26.2399C75.9462 26.0861 75.735 26 75.515 26C75.2951 26 75.0839 26.0861 74.9266 26.2399C74.7694 26.3937 74.6787 26.603 74.6738 26.8229V41.4191C74.9507 41.3634 75.2324 41.3352 75.5148 41.3349Z" fill="#D2D2D3"/>
<path d="M75.5154 49.748C75.2329 49.7476 74.951 49.7194 74.674 49.6637V53.744C74.6716 53.8561 74.6915 53.9674 74.7327 54.0717C74.7738 54.1759 74.8354 54.2708 74.9138 54.3509C74.9921 54.431 75.0857 54.4946 75.189 54.5381C75.2922 54.5815 75.4032 54.6039 75.5152 54.6039C75.6273 54.6039 75.7382 54.5815 75.8415 54.5381C75.9448 54.4946 76.0383 54.431 76.1167 54.3509C76.195 54.2708 76.2566 54.1759 76.2978 54.0717C76.3389 53.9674 76.3589 53.8561 76.3564 53.744V49.6637C76.0796 49.7199 75.7979 49.7482 75.5154 49.748V49.748Z" fill="#D2D2D3"/>
<path d="M64.9953 32.9222C65.2779 32.922 65.5597 32.9502 65.8367 33.0065V26.8229C65.8318 26.603 65.7411 26.3937 65.5839 26.2399C65.4266 26.0861 65.2154 26 64.9955 26C64.7755 26 64.5643 26.0861 64.4071 26.2399C64.2499 26.3937 64.1591 26.603 64.1543 26.8229V33.0061C64.4312 32.9505 64.7129 32.9224 64.9953 32.9222V32.9222Z" fill="#D2D2D3"/>
<path d="M64.9959 41.3349C64.7133 41.3346 64.4315 41.3063 64.1545 41.2506V53.744C64.152 53.856 64.172 53.9674 64.2131 54.0716C64.2543 54.1758 64.3159 54.2708 64.3942 54.3509C64.4726 54.431 64.5661 54.4946 64.6694 54.538C64.7727 54.5815 64.8836 54.6039 64.9957 54.6039C65.1077 54.6039 65.2187 54.5815 65.3219 54.538C65.4252 54.4946 65.5188 54.431 65.5971 54.3509C65.6755 54.2708 65.7371 54.1758 65.7782 54.0716C65.8194 53.9674 65.8393 53.856 65.8369 53.744V41.251C65.5601 41.3071 65.2783 41.3352 64.9959 41.3349V41.3349Z" fill="#D2D2D3"/>
<path d="M54.4826 41.3349C54.7652 41.3346 55.047 41.3628 55.324 41.4191V26.8229C55.3191 26.603 55.2284 26.3937 55.0712 26.2399C54.9139 26.0861 54.7027 26 54.4828 26C54.2628 26 54.0516 26.0861 53.8944 26.2399C53.7372 26.3937 53.6464 26.603 53.6416 26.8229V41.4191C53.9185 41.3634 54.2002 41.3352 54.4826 41.3349V41.3349Z" fill="#D2D2D3"/>
<path d="M54.4812 49.748C54.1987 49.7476 53.9169 49.7194 53.6399 49.6637V53.744C53.6374 53.8561 53.6573 53.9674 53.6985 54.0717C53.7397 54.1759 53.8012 54.2708 53.8796 54.3509C53.9579 54.431 54.0515 54.4946 54.1548 54.5381C54.2581 54.5815 54.369 54.6039 54.481 54.6039C54.5931 54.6039 54.704 54.5815 54.8073 54.5381C54.9106 54.4946 55.0041 54.431 55.0825 54.3509C55.1608 54.2708 55.2224 54.1759 55.2636 54.0717C55.3047 53.9674 55.3247 53.8561 55.3222 53.744V49.6637C55.0454 49.7199 54.7637 49.7482 54.4812 49.748V49.748Z" fill="#D2D2D3"/>
<path d="M56.9661 45.4991C56.9661 45.9902 56.8205 46.4703 56.5476 46.8786C56.2748 47.2869 55.887 47.6052 55.4333 47.7931C54.9796 47.9811 54.4803 48.0302 53.9986 47.9344C53.517 47.8386 53.0745 47.6021 52.7273 47.2549C52.38 46.9076 52.1435 46.4652 52.0477 45.9835C51.9519 45.5019 52.0011 45.0026 52.189 44.5489C52.3769 44.0952 52.6952 43.7074 53.1035 43.4345C53.5119 43.1617 53.9919 43.0161 54.483 43.0161C55.1416 43.0161 55.7732 43.2777 56.2388 43.7433C56.7045 44.209 56.9661 44.8406 56.9661 45.4991Z" stroke="#D2D2D3" stroke-width="1.5"/>
<path d="M67.4827 37.0359C67.4827 37.527 67.3371 38.0071 67.0642 38.4154C66.7914 38.8238 66.4036 39.142 65.9499 39.33C65.4962 39.5179 64.9969 39.5671 64.5152 39.4713C64.0336 39.3754 63.5911 39.139 63.2439 38.7917C62.8966 38.4444 62.6601 38.002 62.5643 37.5203C62.4685 37.0387 62.5177 36.5394 62.7056 36.0857C62.8935 35.632 63.2118 35.2442 63.6201 34.9713C64.0285 34.6985 64.5085 34.5529 64.9996 34.5529C65.6582 34.5529 66.2898 34.8145 66.7554 35.2801C67.2211 35.7458 67.4827 36.3774 67.4827 37.0359Z" stroke="#D2D2D3" stroke-width="1.5"/>
<path d="M78.0003 45.4991C78.0003 45.9902 77.8546 46.4703 77.5818 46.8786C77.309 47.2869 76.9212 47.6052 76.4674 47.7931C76.0137 47.9811 75.5145 48.0302 75.0328 47.9344C74.5511 47.8386 74.1087 47.6021 73.7614 47.2549C73.4142 46.9076 73.1777 46.4652 73.0819 45.9835C72.9861 45.5019 73.0353 45.0026 73.2232 44.5489C73.4111 44.0952 73.7294 43.7074 74.1377 43.4345C74.5461 43.1617 75.0261 43.0161 75.5172 43.0161C75.8433 43.0161 76.1662 43.0803 76.4674 43.2051C76.7687 43.3298 77.0424 43.5127 77.273 43.7433C77.5036 43.9739 77.6865 44.2476 77.8113 44.5489C77.936 44.8501 78.0003 45.173 78.0003 45.4991V45.4991Z" stroke="#D2D2D3" stroke-width="1.5"/>
</g>
<defs>
<filter id="filter0_i_664_32" x="30" y="5" width="70" height="70" filterUnits="userSpaceOnUse" color-interpolation-filters="sRGB">
<feFlood flood-opacity="0" result="BackgroundImageFix"/>
<feBlend mode="normal" in="SourceGraphic" in2="BackgroundImageFix" result="shape"/>
<feColorMatrix in="SourceAlpha" type="matrix" values="0 0 0 0 0 0 0 0 0 0 0 0 0 0 0 0 0 0 127 0" result="hardAlpha"/>
<feMorphology radius="3" operator="erode" in="SourceAlpha" result="effect1_innerShadow_664_32"/>
<feOffset/>
<feGaussianBlur stdDeviation="2"/>
<feComposite in2="hardAlpha" operator="arithmetic" k2="-1" k3="1"/>
<feColorMatrix type="matrix" values="0 0 0 0 0 0 0 0 0 0 0 0 0 0 0 0 0 0 0.5 0"/>
<feBlend mode="normal" in2="shape" result="effect1_innerShadow_664_32"/>
</filter>
<filter id="filter1_d_664_32" x="24" y="-1" width="82" height="82" filterUnits="userSpaceOnUse" color-interpolation-filters="sRGB">
<feFlood flood-opacity="0" result="BackgroundImageFix"/>
<feColorMatrix in="SourceAlpha" type="matrix" values="0 0 0 0 0 0 0 0 0 0 0 0 0 0 0 0 0 0 127 0" result="hardAlpha"/>
<feMorphology radius="2" operator="dilate" in="SourceAlpha" result="effect1_dropShadow_664_32"/>
<feOffset/>
<feGaussianBlur stdDeviation="2"/>
<feComposite in2="hardAlpha" operator="out"/>
<feColorMatrix type="matrix" values="0 0 0 0 0.0470588 0 0 0 0 0.443137 0 0 0 0 0.764706 0 0 0 0.45 0"/>
<feBlend mode="normal" in2="BackgroundImageFix" result="effect1_dropShadow_664_32"/>
<feBlend mode="normal" in="SourceGraphic" in2="effect1_dropShadow_664_32" result="shape"/>
</filter>
<clipPath id="clip0_664_32">
<rect width="130" height="100" fill="white"/>
</clipPath>
</defs>
</svg>
