<svg width="130" height="100" viewBox="0 0 130 100" fill="none" xmlns="http://www.w3.org/2000/svg">
<g filter="url(#filter0_i_664_58)">
<circle cx="65" cy="40" r="32" transform="rotate(-180 65 40)" stroke="black" stroke-opacity="0.5" stroke-width="6"/>
</g>
<path fill-rule="evenodd" clip-rule="evenodd" d="M54.9068 34.0737H51.6704C51.1788 34.0737 50.7803 34.4722 50.7803 34.9638V45.2893C50.7803 45.7809 51.1788 46.1794 51.6704 46.1794H78.3296C78.8212 46.1794 79.2198 45.7809 79.2198 45.2893V34.9638C79.2198 34.4722 78.8212 34.0737 78.3296 34.0737H66.5035L65.969 33.3777C64.7538 31.795 62.8484 30.7803 60.7051 30.7803C58.5619 30.7803 56.6565 31.795 55.4413 33.3777L54.9068 34.0737ZM67.381 32.2935C65.8434 30.2909 63.425 29 60.7051 29C57.9853 29 55.5669 30.2909 54.0293 32.2935H51.6704C50.1956 32.2935 49 33.489 49 34.9638V45.2893C49 46.7641 50.1956 47.9597 51.6704 47.9597H78.3296C79.8044 47.9597 81 46.7641 81 45.2893V34.9638C81 33.489 79.8044 32.2935 78.3296 32.2935H67.381Z" fill="white"/>
<path fill-rule="evenodd" clip-rule="evenodd" d="M60.7053 41.862C62.9421 41.862 64.7554 40.0488 64.7554 37.812C64.7554 35.5752 62.9421 33.7619 60.7053 33.7619C58.4685 33.7619 56.6553 35.5752 56.6553 37.812C56.6553 40.0488 58.4685 41.862 60.7053 41.862ZM60.7053 43.6423C63.9253 43.6423 66.5356 41.032 66.5356 37.812C66.5356 34.592 63.9253 31.9817 60.7053 31.9817C57.4853 31.9817 54.875 34.592 54.875 37.812C54.875 41.032 57.4853 43.6423 60.7053 43.6423Z" fill="white"/>
<path d="M55.3204 48.4938C55.3204 49.3296 54.6429 50.007 53.8072 50.007C52.9714 50.007 52.2939 49.3296 52.2939 48.4938C52.2939 48.4938 52.9714 48.4938 53.8072 48.4938C54.6429 48.4938 55.3204 48.4938 55.3204 48.4938Z" fill="white"/>
<path fill-rule="evenodd" clip-rule="evenodd" d="M55.3204 48.4938H52.2939C52.2939 48.8265 52.4013 49.1342 52.5833 49.384C52.8585 49.7616 53.3041 50.007 53.8072 50.007C54.3102 50.007 54.7559 49.7616 55.031 49.384C55.213 49.1342 55.3204 48.8265 55.3204 48.4938Z" fill="white"/>
<path d="M77.7081 48.4938C77.7081 49.3296 77.0306 50.007 76.1949 50.007C75.3591 50.007 74.6816 49.3296 74.6816 48.4938C74.6816 48.4938 75.3591 48.4938 76.1949 48.4938C77.0306 48.4938 77.7081 48.4938 77.7081 48.4938Z" fill="white"/>
<path fill-rule="evenodd" clip-rule="evenodd" d="M77.7081 48.4938H74.6816C74.6816 48.8265 74.789 49.1342 74.971 49.384C75.2461 49.7616 75.6918 50.007 76.1949 50.007C76.6979 50.007 77.1436 49.7616 77.4187 49.384C77.6007 49.1342 77.7081 48.8265 77.7081 48.4938Z" fill="white"/>
<path fill-rule="evenodd" clip-rule="evenodd" d="M68.8496 37.0558C68.8496 36.6133 69.2083 36.2547 69.6507 36.2547H77.1723C77.6147 36.2547 77.9734 36.6133 77.9734 37.0558C77.9734 37.4982 77.6147 37.8569 77.1723 37.8569H69.6507C69.2083 37.8569 68.8496 37.4982 68.8496 37.0558Z" fill="white"/>
<path fill-rule="evenodd" clip-rule="evenodd" d="M68.8496 39.5478C68.8496 39.1053 69.2083 38.7467 69.6507 38.7467H77.1723C77.6147 38.7467 77.9734 39.1053 77.9734 39.5478C77.9734 39.9902 77.6147 40.3489 77.1723 40.3489H69.6507C69.2083 40.3489 68.8496 39.9902 68.8496 39.5478Z" fill="white"/>
<path fill-rule="evenodd" clip-rule="evenodd" d="M68.8496 42.0403C68.8496 41.5979 69.2083 41.2392 69.6507 41.2392H77.1723C77.6147 41.2392 77.9734 41.5979 77.9734 42.0403C77.9734 42.4828 77.6147 42.8414 77.1723 42.8414H69.6507C69.2083 42.8414 68.8496 42.4828 68.8496 42.0403Z" fill="white"/>
<path fill-rule="evenodd" clip-rule="evenodd" d="M58.569 37.2779C58.9377 37.2779 59.2366 37.5768 59.2366 37.9455C59.2366 38.6002 59.7502 39.1027 60.3492 39.1027C60.7179 39.1027 61.0168 39.4016 61.0168 39.7703C61.0168 40.139 60.7179 40.4379 60.3492 40.4379C58.9819 40.4379 57.9014 39.3064 57.9014 37.9455C57.9014 37.5768 58.2003 37.2779 58.569 37.2779Z" fill="white"/>
<defs>
<filter id="filter0_i_664_58" x="30" y="5" width="70" height="70" filterUnits="userSpaceOnUse" color-interpolation-filters="sRGB">
<feFlood flood-opacity="0" result="BackgroundImageFix"/>
<feBlend mode="normal" in="SourceGraphic" in2="BackgroundImageFix" result="shape"/>
<feColorMatrix in="SourceAlpha" type="matrix" values="0 0 0 0 0 0 0 0 0 0 0 0 0 0 0 0 0 0 127 0" result="hardAlpha"/>
<feMorphology radius="3" operator="erode" in="SourceAlpha" result="effect1_innerShadow_664_58"/>
<feOffset/>
<feGaussianBlur stdDeviation="2"/>
<feComposite in2="hardAlpha" operator="arithmetic" k2="-1" k3="1"/>
<feColorMatrix type="matrix" values="0 0 0 0 0 0 0 0 0 0 0 0 0 0 0 0 0 0 0.5 0"/>
<feBlend mode="normal" in2="shape" result="effect1_innerShadow_664_58"/>
</filter>
</defs>
</svg>
