<svg width="90" height="60" viewBox="0 0 90 60" fill="none" xmlns="http://www.w3.org/2000/svg">
<path d="M72.9902 30.0383L39.9357 30.0383" stroke="black" stroke-opacity="0.5" stroke-width="6" stroke-linecap="round"/>
<g filter="url(#filter0_d_698_164)">
<circle cx="41.0364" cy="30.0364" r="22.0364" fill="#312F3D" fill-opacity="0.7" shape-rendering="crispEdges"/>
</g>
<path fill-rule="evenodd" clip-rule="evenodd" d="M43.2392 22.3751L43.2392 22.1665C43.2377 22.015 43.2752 21.8654 43.3483 21.7307C43.4214 21.5959 43.5281 21.48 43.659 21.3929C43.79 21.3057 43.9413 21.25 44.1001 21.2305C44.2588 21.2109 44.4202 21.2282 44.5703 21.2807C46.4468 21.956 48.0621 23.1552 49.2018 24.7192C50.3415 26.2833 50.9519 28.1383 50.9519 30.0381C50.9519 31.938 50.3415 33.793 49.2018 35.3571C48.0621 36.9211 46.4468 38.1203 44.5703 38.7956C44.4202 38.847 44.2591 38.8635 44.1008 38.8435C43.9425 38.8235 43.7916 38.7677 43.661 38.6808C43.5304 38.5938 43.4238 38.4784 43.3504 38.3442C43.2769 38.2099 43.2388 38.061 43.2392 37.9098L43.2392 37.7012C43.2413 37.5074 43.3056 37.3189 43.4237 37.1606C43.5418 37.0023 43.708 36.8818 43.9002 36.815C45.3313 36.2732 46.558 35.3381 47.4221 34.1301C48.2862 32.9222 48.7481 31.497 48.7481 30.0383C48.7481 28.5797 48.2862 27.1544 47.4221 25.9465C46.558 24.7386 45.3313 23.8034 43.9002 23.2616C43.7092 23.1931 43.5442 23.072 43.4264 22.9141C43.3086 22.7561 43.2434 22.5684 43.2392 22.3751ZM31.1191 27.9529L31.1191 32.123C31.12 32.3992 31.2364 32.6639 31.4427 32.8592C31.6491 33.0545 31.9288 33.1646 32.2207 33.1654L35.5256 33.1654L39.1501 36.5954C39.3047 36.741 39.5015 36.84 39.7155 36.8799C39.9296 36.9198 40.1513 36.8989 40.3528 36.8197C40.5543 36.7406 40.7265 36.6068 40.8477 36.4351C40.969 36.2635 41.0338 36.0617 41.0341 35.8553L41.0341 24.2104C41.0338 24.0039 40.969 23.8022 40.8477 23.6305C40.7265 23.4589 40.5543 23.3251 40.3528 23.2459C40.1513 23.1668 39.9296 23.1458 39.7155 23.1858C39.5015 23.2257 39.3048 23.3247 39.1501 23.4703L35.5256 26.9109L32.2211 26.9109C31.9292 26.9116 31.6495 27.0216 31.443 27.2168C31.2366 27.4121 31.1201 27.6767 31.1191 27.9529V27.9529ZM45.9917 30.0393C45.9918 29.1658 45.7342 28.3095 45.2479 27.567C44.7616 26.8245 44.0659 26.2252 43.2392 25.8366L43.2392 34.2291C44.0664 33.8438 44.7629 33.2467 45.2494 32.5056C45.736 31.7645 45.9932 30.9091 45.9917 30.0366L45.9917 30.0393Z" fill="white"/>
<defs>
<filter id="filter0_d_698_164" x="11" y="0" width="58.0723" height="58.0728" filterUnits="userSpaceOnUse" color-interpolation-filters="sRGB">
<feFlood flood-opacity="0" result="BackgroundImageFix"/>
<feColorMatrix in="SourceAlpha" type="matrix" values="0 0 0 0 0 0 0 0 0 0 0 0 0 0 0 0 0 0 127 0" result="hardAlpha"/>
<feMorphology radius="2" operator="dilate" in="SourceAlpha" result="effect1_dropShadow_698_164"/>
<feOffset dx="-1" dy="-1"/>
<feGaussianBlur stdDeviation="2.5"/>
<feComposite in2="hardAlpha" operator="out"/>
<feColorMatrix type="matrix" values="0 0 0 0 0 0 0 0 0 0 0 0 0 0 0 0 0 0 0.25 0"/>
<feBlend mode="normal" in2="BackgroundImageFix" result="effect1_dropShadow_698_164"/>
<feBlend mode="normal" in="SourceGraphic" in2="effect1_dropShadow_698_164" result="shape"/>
</filter>
</defs>
</svg>
