<svg width="90" height="60" viewBox="0 0 90 60" fill="none" xmlns="http://www.w3.org/2000/svg">
<path d="M18 30.0344L51.0545 30.0344" stroke="black" stroke-opacity="0.5" stroke-width="6" stroke-linecap="round"/>
<g filter="url(#filter0_d_698_156)">
<circle cx="49.9543" cy="30.0364" r="22.0364" fill="#312F3D" fill-opacity="0.7" shape-rendering="crispEdges"/>
<circle cx="49.9543" cy="30.0364" r="20.5364" stroke="#BB3E03" stroke-width="3" shape-rendering="crispEdges"/>
</g>
<path fill-rule="evenodd" clip-rule="evenodd" d="M52.1571 22.3751L52.1571 22.1665C52.1557 22.015 52.1931 21.8654 52.2663 21.7307C52.3394 21.5959 52.446 21.48 52.577 21.3929C52.7079 21.3057 52.8593 21.25 53.018 21.2305C53.1768 21.2109 53.3381 21.2282 53.4883 21.2807C55.3648 21.956 56.98 23.1552 58.1198 24.7192C59.2595 26.2833 59.8698 28.1383 59.8698 30.0381C59.8698 31.938 59.2595 33.793 58.1198 35.3571C56.98 36.9211 55.3648 38.1203 53.4883 38.7956C53.3381 38.847 53.1771 38.8635 53.0188 38.8435C52.8605 38.8235 52.7096 38.7677 52.579 38.6808C52.4483 38.5938 52.3418 38.4784 52.2683 38.3442C52.1949 38.2099 52.1568 38.061 52.1571 37.9098L52.1571 37.7012C52.1592 37.5074 52.2236 37.3189 52.3417 37.1606C52.4597 37.0023 52.6259 36.8818 52.8181 36.815C54.2492 36.2732 55.476 35.338 56.3401 34.1301C57.2042 32.9222 57.666 31.497 57.666 30.0383C57.666 28.5797 57.2042 27.1544 56.3401 25.9465C55.476 24.7386 54.2492 23.8034 52.8181 23.2616C52.6271 23.1931 52.4621 23.072 52.3443 22.9141C52.2266 22.7561 52.1614 22.5684 52.1571 22.3751ZM40.0371 27.9529L40.0371 32.123C40.038 32.3992 40.1543 32.6639 40.3607 32.8592C40.5671 33.0545 40.8468 33.1646 41.1386 33.1654L44.4436 33.1654L48.068 36.5954C48.2227 36.741 48.4195 36.84 48.6335 36.8799C48.8475 36.9198 49.0693 36.8989 49.2708 36.8197C49.4722 36.7406 49.6445 36.6068 49.7657 36.4351C49.8869 36.2635 49.9518 36.0617 49.952 35.8553L49.952 24.2104C49.9518 24.0039 49.8869 23.8022 49.7657 23.6305C49.6445 23.4589 49.4722 23.3251 49.2708 23.2459C49.0693 23.1668 48.8475 23.1458 48.6335 23.1858C48.4195 23.2257 48.2227 23.3247 48.068 23.4703L44.4436 26.9109L41.139 26.9109C40.8472 26.9116 40.5675 27.0216 40.361 27.2168C40.1545 27.4121 40.0381 27.6767 40.0371 27.9529V27.9529ZM54.9097 30.0393C54.9098 29.1658 54.6522 28.3095 54.1659 27.567C53.6796 26.8245 52.9839 26.2252 52.1571 25.8366L52.1571 34.2291C52.9844 33.8438 53.6808 33.2467 54.1674 32.5056C54.654 31.7645 54.9111 30.9091 54.9097 30.0366L54.9097 30.0393Z" fill="white"/>
<line x1="35.6718" y1="45.5038" x2="65.4209" y2="15.7547" stroke="#BB3E03" stroke-width="3"/>
<defs>
<filter id="filter0_d_698_156" x="19.918" y="0" width="58.0723" height="58.0728" filterUnits="userSpaceOnUse" color-interpolation-filters="sRGB">
<feFlood flood-opacity="0" result="BackgroundImageFix"/>
<feColorMatrix in="SourceAlpha" type="matrix" values="0 0 0 0 0 0 0 0 0 0 0 0 0 0 0 0 0 0 127 0" result="hardAlpha"/>
<feMorphology radius="2" operator="dilate" in="SourceAlpha" result="effect1_dropShadow_698_156"/>
<feOffset dx="-1" dy="-1"/>
<feGaussianBlur stdDeviation="2.5"/>
<feComposite in2="hardAlpha" operator="out"/>
<feColorMatrix type="matrix" values="0 0 0 0 0 0 0 0 0 0 0 0 0 0 0 0 0 0 0.25 0"/>
<feBlend mode="normal" in2="BackgroundImageFix" result="effect1_dropShadow_698_156"/>
<feBlend mode="normal" in="SourceGraphic" in2="effect1_dropShadow_698_156" result="shape"/>
</filter>
</defs>
</svg>
